<svg width="23" height="30" viewBox="0 0 23 30" fill="none" xmlns="http://www.w3.org/2000/svg">
<path d="M12.2193 0C6.07321 0 0 4.11108 0 10.7648C0 14.9961 2.37197 17.4002 3.80953 17.4002C4.40277 17.4002 4.74395 15.7414 4.74395 15.273C4.74395 14.7143 3.3246 13.5238 3.3246 11.1975C3.3246 6.36521 6.99037 2.93882 11.7343 2.93882C15.8132 2.93882 18.832 5.26507 18.832 9.53868C18.832 12.7304 17.5564 18.7167 13.423 18.7167C11.9317 18.7167 10.6552 17.6349 10.6552 16.0847C10.6552 13.8123 12.2365 11.613 12.2365 9.26845C12.2365 5.29008 6.61182 6.01132 6.61182 10.8196C6.61182 11.8293 6.73736 12.9468 7.18684 13.8671C6.35976 17.4377 4.67111 22.7567 4.67111 26.435C4.67111 27.5707 4.83308 28.6891 4.94041 29.8248C5.14359 30.0537 5.042 30.0297 5.35347 29.9152C8.37235 25.7676 8.26501 24.9569 9.63069 19.5293C10.3677 20.9362 12.272 21.6931 13.7814 21.6931C20.1421 21.6931 23 15.4721 23 9.86468C23 3.89663 17.8602 0.00192332 12.2183 0.00192332L12.2193 0Z" fill="#F8F1EA"/>
</svg>
