<svg width="100" height="15" viewBox="0 0 100 15" fill="none" xmlns="http://www.w3.org/2000/svg">
<path d="M88.7581 14.9997C90.2761 14.9961 91.7759 14.4444 92.5489 13.2663C92.5603 13.7334 92.776 14.4233 92.843 14.6813H95C94.9525 14.02 94.874 13.3301 94.8692 12.6649V0H92.6143V5.66025C91.9426 4.81826 90.4231 4.19221 89.1828 4.20974C85.5211 4.19221 83.668 6.84538 83.6599 9.58708C83.668 12.2052 85.2954 14.9963 88.7581 14.9997ZM49.6405 4.20996C49.5504 4.203 43.9133 4.26659 43.4967 9.62258C43.2171 12.7995 45.7762 15.0071 49.6405 14.9997C53.472 15.0069 55.7857 12.8101 55.7842 9.62258C55.7857 6.51662 53.2366 4.37265 49.6405 4.20996ZM56.6338 0H59.2809V14.6813H56.6338V0ZM74.5424 8.56127C74.5997 7.08964 76.8839 6.0072 78.0065 6.01417C79.7269 6.0072 80.119 7.46109 80.1634 8.56127V14.6813H82.3856V8.06601C82.3839 7.71591 82.3447 7.06852 82.1568 6.43865C81.7269 4.94589 79.5112 3.96952 78.3332 3.96211C76.5505 3.9693 75.3052 4.8077 74.5752 5.73103L74.5424 5.69575V4.13918H72.2548V14.6815H74.5424V8.56127ZM68.4966 13.3371C68.5014 13.7651 68.5504 14.2429 68.6272 14.6813H70.8167C70.7756 14.3914 70.6777 14.0943 70.6532 13.5847V8.03073C70.6579 4.94589 68.2755 4.203 65.9147 4.20996C64.6385 4.203 63.3835 4.36232 62.4178 4.8468C61.4814 5.31734 60.8539 6.11349 60.8166 7.3939H63.3003C63.256 6.91998 64.0893 5.92249 65.784 5.90811C67.0404 5.92249 68.2363 6.4955 68.2348 7.18154V8.13679C66.8248 8.09792 64.207 8.15095 62.8102 8.70284C60.658 9.47787 60.2756 11.1971 60.2611 11.9223C60.2756 13.9141 61.9325 15.0073 64.1499 14.9999C65.7366 15.0071 67.6974 14.5188 68.4966 13.3371ZM33.268 8.4197H37.7451C38.9426 8.44802 39.7368 9.94459 39.8365 10.7547C39.9917 12.0672 40.1582 13.3833 40.4573 14.6815H43.2352C42.5504 13.882 42.4229 12.1524 42.2548 11.2147C41.9523 9.20192 42.1875 8.1087 40.3919 7.74782V7.71254C42.4916 7.313 42.8835 5.75283 42.8756 3.85649C42.8837 0.849633 40.1092 0.0323584 37.1894 0.000449417H30.5882V14.6817H33.268V8.4197ZM0 0.141568H24.4444C26.9916 0.265609 28.825 1.81499 28.9869 4.84657C28.9034 7.59906 27.2955 9.39248 24.4444 9.51629H9.60784V10.3653H28.8235V11.9571H8.13734V7.92444H24.4118C26.4035 7.85388 27.3742 6.8456 27.5164 4.8468C27.3152 2.69608 26.1879 1.82578 24.4118 1.73365H1.4707V14.6107H0V0.141568Z" fill="#FF8200"/>
<path d="M4.46425 12.3852V14.7852H3V3H24.835V7.15526H9.05255C7.16332 7.24149 5.50395 8.10112 5.47315 10.5583C5.8357 12.6359 7.13418 13.3131 9.05255 13.3881H29V15H9.01989C7.27081 14.9251 5.2987 14.291 4.46425 12.3852Z" fill="#FF8200"/>
<path d="M4 8C4.90733 6.40509 6.75171 5.84358 8.57821 5.77226H23V5H4V8Z" fill="white"/>
<path d="M99.9998 1.5C100.012 0.665007 99.3291 0 98.5173 0C97.6639 0 96.9813 0.665007 97.0004 1.5C96.9916 2.31139 97.6639 2.98636 98.5173 3C99.3293 2.97618 100.012 2.31139 99.9998 1.5Z" fill="#FF8200"/>
<path d="M89.2932 5.9213C91.2292 5.93513 92.6284 8.10979 92.6432 9.46063C92.6284 10.8253 91.3671 12.8571 89.4574 12.8638C87.1797 12.8571 85.9184 10.9684 85.9102 9.46063C85.9184 7.95652 87.0416 5.93513 89.2932 5.9213ZM49.4544 13C47.2653 13.0103 45.8759 11.0298 45.8745 9.49478C45.8759 7.90551 47.1669 6.01684 49.4544 6.02354V5.98939V6.02354C51.7089 6.01684 52.9996 7.90573 53.0015 9.49478C52.9996 11.0298 51.6004 13.0103 49.4544 13ZM68.142 10.0393C68.0746 12.0711 66.7543 12.7959 64.792 12.7959C63.7983 12.7959 62.803 12.653 62.8541 11.2985C62.8623 10.2847 64.7342 9.39621 68.1418 9.76716V10.0393H68.142ZM33 2.31409H37.5324C39.1465 2.33116 40.0924 3.14785 40.0943 4.38996C40.0924 5.64936 39.1467 6.32315 37.5324 6.32985H33V2.31409ZM99.9999 1.32728C100.008 2.04539 99.4364 2.63769 98.752 2.65455C98.0276 2.63769 97.4562 2.04561 97.471 1.32728C97.4562 0.595761 98.0276 0.0034587 98.719 0C99.4366 0.0034587 100.008 0.595545 99.9999 1.32728Z" fill="white"/>
<path d="M98 3H98.1538V2.14275H98.5641C98.8242 2.13886 98.755 2.49384 98.7692 2.75522L98.7949 3H99C98.9243 2.81227 98.9474 2.76326 98.9231 2.51018C98.9166 2.16349 98.9089 2.13886 98.7949 2.02036C98.9089 1.85725 98.955 1.77168 98.9487 1.53053C98.9319 1.07338 98.7473 1.01219 98.5641 1H98V3Z" fill="#FF8200"/>
<path d="M98.6391 1.00228C98.7807 0.985135 99.0204 1.05558 98.9986 1.5304C98.9606 1.90049 98.7926 1.97093 98.6391 2H98V1.00228H98.6391Z" fill="white"/>
</svg>
