<svg width="42" height="32" viewBox="0 0 42 32" fill="none" xmlns="http://www.w3.org/2000/svg">
<path d="M40.112 5.69136C39.8841 4.78269 39.4378 3.9542 38.8178 3.28882C38.1978 2.62343 37.4258 2.1445 36.579 1.89994C34.265 0.940553 11.8472 0.470516 5.34322 1.92677C4.49637 2.17142 3.72428 2.65052 3.10424 3.3161C2.48419 3.98169 2.03797 4.8104 1.81024 5.71926C0.765246 10.6375 0.686247 21.2702 1.83624 26.2989C2.06412 27.2076 2.51042 28.0361 3.13045 28.7015C3.75048 29.3668 4.52249 29.8458 5.36922 30.0903C9.95219 31.2225 31.7401 31.3813 36.605 30.0903C37.4518 29.8458 38.2238 29.3668 38.8438 28.7015C39.4638 28.0361 39.9101 27.2076 40.138 26.2989C41.252 20.9407 41.331 10.9669 40.112 5.69136V5.69136Z" stroke="#F8F1EA" stroke-width="2" stroke-linecap="round" stroke-linejoin="round"/>
<path d="M27 16.5L17 10V23L27 16.5Z" stroke="#F8F1EA" stroke-width="2" stroke-linecap="round" stroke-linejoin="round"/>
</svg>
